<svg id="svg" version="1.1" xmlns="http://www.w3.org/2000/svg" xmlns:xlink="http://www.w3.org/1999/xlink" width="400" height="343.239625167336" viewBox="0, 0, 400,343.239625167336"><g id="svgg"><path id="path0" d="M0.000 171.620 L 0.000 343.240 200.000 343.240 L 400.000 343.240 400.000 171.620 L 400.000 0.000 200.000 0.000 L 0.000 0.000 0.000 171.620 M216.346 40.720 C 261.882 46.331,300.857 76.023,317.181 117.537 C 320.262 125.372,352.256 226.293,353.509 232.129 C 361.606 269.836,338.414 309.448,300.997 321.821 C 275.527 330.243,249.849 325.536,226.883 308.236 C 191.504 281.584,151.873 270.657,110.843 276.242 C 89.646 279.128,73.369 276.361,57.164 267.118 C 14.087 242.547,4.564 184.022,37.600 146.889 C 41.249 142.788,118.329 72.210,124.766 67.077 C 150.187 46.803,184.821 36.835,216.346 40.720 " stroke="none" fill="#000000" fill-rule="evenodd"></path></g></svg>